<mxfile host="Electron" modified="2023-11-20T19:43:26.465Z" agent="Mozilla/5.0 (X11; Linux x86_64) AppleWebKit/537.36 (KHTML, like Gecko) draw.io/22.1.2 Chrome/114.0.5735.289 Electron/25.9.4 Safari/537.36" etag="0jGISCFDZrPVutRVa6wB" version="22.1.2" type="device">
  <diagram name="Page-1" id="j6pTxy4B1PfsHpCEsH7e">
    <mxGraphModel dx="1605" dy="992" grid="1" gridSize="10" guides="1" tooltips="1" connect="1" arrows="1" fold="1" page="1" pageScale="1" pageWidth="827" pageHeight="1169" math="0" shadow="0">
      <root>
        <mxCell id="0" />
        <mxCell id="1" parent="0" />
        <mxCell id="DwELIri0slQb0LKG6Af3-19" style="rounded=0;orthogonalLoop=1;jettySize=auto;html=1;exitX=0.5;exitY=1;exitDx=0;exitDy=0;entryX=0.5;entryY=0;entryDx=0;entryDy=0;" edge="1" parent="1" source="DwELIri0slQb0LKG6Af3-1" target="DwELIri0slQb0LKG6Af3-18">
          <mxGeometry relative="1" as="geometry" />
        </mxCell>
        <mxCell id="DwELIri0slQb0LKG6Af3-1" value="Mon dossier trop bien" style="image;html=1;image=img/lib/clip_art/general/Empty_Folder_128x128.png;labelPosition=center;verticalLabelPosition=top;align=center;verticalAlign=bottom;" vertex="1" parent="1">
          <mxGeometry x="240" y="120" width="40" height="40" as="geometry" />
        </mxCell>
        <mxCell id="DwELIri0slQb0LKG6Af3-3" value="&lt;u&gt;&lt;font style=&quot;font-size: 19px;&quot;&gt;Exemple arborescence de fichier&lt;/font&gt;&lt;/u&gt;" style="text;html=1;align=center;verticalAlign=middle;resizable=0;points=[];autosize=1;strokeColor=none;fillColor=none;" vertex="1" parent="1">
          <mxGeometry x="145" y="30" width="300" height="40" as="geometry" />
        </mxCell>
        <mxCell id="DwELIri0slQb0LKG6Af3-4" value="&amp;lt;chunk&amp;gt;&lt;br&gt;(1024)" style="verticalLabelPosition=bottom;html=1;verticalAlign=top;align=center;strokeColor=none;fillColor=#00BEF2;shape=mxgraph.azure.cloud_services_configuration_file;pointerEvents=1;" vertex="1" parent="1">
          <mxGeometry x="20" y="360" width="30" height="40" as="geometry" />
        </mxCell>
        <mxCell id="DwELIri0slQb0LKG6Af3-5" value="&amp;lt;chunk&amp;gt;&lt;br&gt;(1024)" style="verticalLabelPosition=bottom;html=1;verticalAlign=top;align=center;strokeColor=none;fillColor=#00BEF2;shape=mxgraph.azure.cloud_services_configuration_file;pointerEvents=1;" vertex="1" parent="1">
          <mxGeometry x="70" y="360" width="30" height="40" as="geometry" />
        </mxCell>
        <mxCell id="DwELIri0slQb0LKG6Af3-12" style="rounded=0;orthogonalLoop=1;jettySize=auto;html=1;startArrow=classic;startFill=1;endArrow=none;endFill=0;entryX=0.5;entryY=1;entryDx=0;entryDy=0;exitX=0.5;exitY=0;exitDx=0;exitDy=0;exitPerimeter=0;" edge="1" parent="1" source="DwELIri0slQb0LKG6Af3-6" target="DwELIri0slQb0LKG6Af3-14">
          <mxGeometry relative="1" as="geometry">
            <mxPoint x="120" y="290" as="targetPoint" />
          </mxGeometry>
        </mxCell>
        <mxCell id="DwELIri0slQb0LKG6Af3-6" value="&amp;lt;chunk&amp;gt;&lt;br&gt;(1024)" style="verticalLabelPosition=bottom;html=1;verticalAlign=top;align=center;strokeColor=none;fillColor=#00BEF2;shape=mxgraph.azure.cloud_services_configuration_file;pointerEvents=1;" vertex="1" parent="1">
          <mxGeometry x="145" y="360" width="30" height="40" as="geometry" />
        </mxCell>
        <mxCell id="DwELIri0slQb0LKG6Af3-13" style="rounded=0;orthogonalLoop=1;jettySize=auto;html=1;startArrow=classic;startFill=1;endArrow=none;endFill=0;entryX=0.5;entryY=1;entryDx=0;entryDy=0;exitX=0.5;exitY=0;exitDx=0;exitDy=0;exitPerimeter=0;" edge="1" parent="1" source="DwELIri0slQb0LKG6Af3-7" target="DwELIri0slQb0LKG6Af3-14">
          <mxGeometry relative="1" as="geometry">
            <mxPoint x="140" y="260" as="targetPoint" />
          </mxGeometry>
        </mxCell>
        <mxCell id="DwELIri0slQb0LKG6Af3-7" value="&amp;lt;chunk&amp;gt;&lt;br&gt;(120)" style="verticalLabelPosition=bottom;html=1;verticalAlign=top;align=center;strokeColor=none;fillColor=#00BEF2;shape=mxgraph.azure.cloud_services_configuration_file;pointerEvents=1;" vertex="1" parent="1">
          <mxGeometry x="200" y="360" width="30" height="40" as="geometry" />
        </mxCell>
        <mxCell id="DwELIri0slQb0LKG6Af3-10" value="" style="endArrow=none;html=1;rounded=0;exitX=0.5;exitY=0;exitDx=0;exitDy=0;exitPerimeter=0;startArrow=classic;startFill=1;endFill=0;entryX=0.5;entryY=1;entryDx=0;entryDy=0;" edge="1" parent="1" source="DwELIri0slQb0LKG6Af3-4" target="DwELIri0slQb0LKG6Af3-14">
          <mxGeometry width="50" height="50" relative="1" as="geometry">
            <mxPoint x="260" y="290" as="sourcePoint" />
            <mxPoint x="100" y="260" as="targetPoint" />
          </mxGeometry>
        </mxCell>
        <mxCell id="DwELIri0slQb0LKG6Af3-11" value="" style="endArrow=none;html=1;rounded=0;exitX=0.5;exitY=0;exitDx=0;exitDy=0;exitPerimeter=0;startArrow=classic;startFill=1;endFill=0;entryX=0.5;entryY=1;entryDx=0;entryDy=0;" edge="1" parent="1" source="DwELIri0slQb0LKG6Af3-5" target="DwELIri0slQb0LKG6Af3-14">
          <mxGeometry width="50" height="50" relative="1" as="geometry">
            <mxPoint x="65" y="370" as="sourcePoint" />
            <mxPoint x="110" y="260" as="targetPoint" />
          </mxGeometry>
        </mxCell>
        <mxCell id="DwELIri0slQb0LKG6Af3-16" style="rounded=0;orthogonalLoop=1;jettySize=auto;html=1;exitX=0.5;exitY=0;exitDx=0;exitDy=0;startArrow=classic;startFill=1;endArrow=none;endFill=0;" edge="1" parent="1" source="DwELIri0slQb0LKG6Af3-14">
          <mxGeometry relative="1" as="geometry">
            <mxPoint x="260" y="160" as="targetPoint" />
          </mxGeometry>
        </mxCell>
        <mxCell id="DwELIri0slQb0LKG6Af3-14" value="CSGO.exe&lt;br&gt;&amp;lt;bigfile&amp;gt;&lt;br&gt;(3192)" style="rounded=0;whiteSpace=wrap;html=1;" vertex="1" parent="1">
          <mxGeometry x="80" y="240" width="80" height="40" as="geometry" />
        </mxCell>
        <mxCell id="DwELIri0slQb0LKG6Af3-15" value="Chat.png&lt;br&gt;&amp;lt;chunk&amp;gt;&lt;br&gt;(1000)" style="verticalLabelPosition=bottom;html=1;verticalAlign=top;align=center;strokeColor=none;fillColor=#00BEF2;shape=mxgraph.azure.cloud_services_configuration_file;pointerEvents=1;" vertex="1" parent="1">
          <mxGeometry x="280" y="240" width="30" height="40" as="geometry" />
        </mxCell>
        <mxCell id="DwELIri0slQb0LKG6Af3-17" style="rounded=0;orthogonalLoop=1;jettySize=auto;html=1;exitX=0.5;exitY=1;exitDx=0;exitDy=0;entryX=0.5;entryY=0;entryDx=0;entryDy=0;entryPerimeter=0;" edge="1" parent="1" source="DwELIri0slQb0LKG6Af3-1" target="DwELIri0slQb0LKG6Af3-15">
          <mxGeometry relative="1" as="geometry" />
        </mxCell>
        <mxCell id="DwELIri0slQb0LKG6Af3-18" value="Sous-dossier" style="image;html=1;image=img/lib/clip_art/general/Empty_Folder_128x128.png;labelPosition=right;verticalLabelPosition=middle;align=left;verticalAlign=middle;" vertex="1" parent="1">
          <mxGeometry x="400" y="240" width="40" height="40" as="geometry" />
        </mxCell>
        <mxCell id="DwELIri0slQb0LKG6Af3-20" value="&amp;nbsp;rapport.pdf&lt;br&gt;&amp;lt;chunk&amp;gt;&lt;br&gt;(512)" style="verticalLabelPosition=bottom;html=1;verticalAlign=top;align=center;strokeColor=none;fillColor=#00BEF2;shape=mxgraph.azure.cloud_services_configuration_file;pointerEvents=1;" vertex="1" parent="1">
          <mxGeometry x="405" y="360" width="30" height="40" as="geometry" />
        </mxCell>
        <mxCell id="DwELIri0slQb0LKG6Af3-22" style="rounded=0;orthogonalLoop=1;jettySize=auto;html=1;entryX=0.5;entryY=0;entryDx=0;entryDy=0;entryPerimeter=0;" edge="1" parent="1" source="DwELIri0slQb0LKG6Af3-18" target="DwELIri0slQb0LKG6Af3-20">
          <mxGeometry relative="1" as="geometry" />
        </mxCell>
      </root>
    </mxGraphModel>
  </diagram>
</mxfile>
